<?xml version="1.0" encoding="UTF-8" standalone="no"?>
<!-- Created with Inkscape (http://www.inkscape.org/) -->

<svg
   xmlns:dc="http://purl.org/dc/elements/1.1/"
   xmlns:cc="http://creativecommons.org/ns#"
   xmlns:rdf="http://www.w3.org/1999/02/22-rdf-syntax-ns#"
   xmlns:svg="http://www.w3.org/2000/svg"
   xmlns="http://www.w3.org/2000/svg"
   xmlns:sodipodi="http://sodipodi.sourceforge.net/DTD/sodipodi-0.dtd"
   xmlns:inkscape="http://www.inkscape.org/namespaces/inkscape"
   width="100mm"
   height="100mm"
   viewBox="0 0 100 100"
   version="1.1"
   id="svg4784"
   inkscape:version="0.92.3 (2405546, 2018-03-11)"
   sodipodi:docname="icon2.svg">
  <defs
     id="defs4778" />
  <sodipodi:namedview
     id="base"
     pagecolor="#ffffff"
     bordercolor="#666666"
     borderopacity="1.0"
     inkscape:pageopacity="0.0"
     inkscape:pageshadow="2"
     inkscape:zoom="0.69061352"
     inkscape:cx="104.67489"
     inkscape:cy="113.36667"
     inkscape:document-units="mm"
     inkscape:current-layer="layer1"
     showgrid="false"
     fit-margin-top="0"
     fit-margin-left="0"
     fit-margin-right="0"
     fit-margin-bottom="0"
     inkscape:window-width="1576"
     inkscape:window-height="873"
     inkscape:window-x="95"
     inkscape:window-y="13"
     inkscape:window-maximized="0" />
  <metadata
     id="metadata4781">
    <rdf:RDF>
      <cc:Work
         rdf:about="">
        <dc:format>image/svg+xml</dc:format>
        <dc:type
           rdf:resource="http://purl.org/dc/dcmitype/StillImage" />
        <dc:title></dc:title>
      </cc:Work>
    </rdf:RDF>
  </metadata>
  <g
     inkscape:label="Laag 1"
     inkscape:groupmode="layer"
     id="layer1"
     transform="translate(-62.359192,-23.82757)">
    <path
       style="opacity:1;fill:#000000;fill-opacity:1;stroke:none;"
       d="m 66,38 h 6 v 60 h -6 z"
       id="rect9283"
       inkscape:connector-curvature="0"
       sodipodi:nodetypes="ccccc" />
    <path
       style="opacity:1;fill:#000000;fill-opacity:1;stroke:none;stroke-width:0;stroke-opacity:1"
       d="M 89,54 A 23,23 0 0 0 66,77 23,23 0 0 0 89,99.5 23,23 0 0 0 112,77 23,23 0 0 0 89,54 Z m 0,5 A 18,18 0 0 1 107,76 18,18 0 0 1 89,94 18,18 0 0 1 71,76 18,18 0 0 1 89,59 Z"
       id="path9285"
       inkscape:connector-curvature="0" />
    <path
       style="fill:#000000;stroke:none;stroke-width:0;"
       d="m 117,55 h 6 l 15,34 15,-34 h 6 L 133,114 h -6 L 135,95 Z"
       id="path9287"
       inkscape:connector-curvature="0"
       sodipodi:nodetypes="ccccccccc" />
  </g>
</svg>
